<?xml version="1.0" standalone="no"?>
 <!DOCTYPE svg PUBLIC "-//W3C//DTD SVG 1.1//EN" 
 "http://www.w3.org/Graphics/SVG/1.1/DTD/svg11.dtd"> 
<svg xmlns="http://www.w3.org/2000/svg" version="1.1" 
    width="10.0127cm" height="7.09422cm" viewBox="0 0 39420 27930 ">
<title>SVG Picture created as Rita PCB-brd.svg date 2016/03/23 22:44:31 </title>
  <desc>Picture generated by PCBNEW </desc>
<g style="fill:#000000; fill-opacity:1;stroke:#000000; stroke-opacity:1;
stroke-linecap:round; stroke-linejoin:round; "
 transform="translate(0 0) scale(1 1)">
</g>
<g style="fill:#000000; fill-opacity:0.0; 
stroke:#000000; stroke-width:-0.000393701; stroke-opacity:1; 
stroke-linecap:round; stroke-linejoin:round;">
</g>
<g style="fill:#000000; fill-opacity:0.0; 
stroke:#000000; stroke-width:147.638; stroke-opacity:1; 
stroke-linecap:round; stroke-linejoin:round;">
<path d="M25563 26989
L25563 26398
" />
<path d="M25563 26679
L25901 26679
" />
<path d="M25901 26989
L25901 26398
" />
<path d="M26266 26989
L26210 26961
L26182 26932
L26154 26876
L26154 26707
L26182 26651
L26210 26623
L26266 26595
L26351 26595
L26407 26623
L26435 26651
L26463 26707
L26463 26876
L26435 26932
L26407 26961
L26351 26989
L26266 26989
" />
<path d="M26716 26989
L26716 26595
" />
<path d="M26716 26651
L26744 26623
L26801 26595
L26885 26595
L26941 26623
L26969 26679
L26969 26989
" />
<path d="M26969 26679
L26998 26623
L27054 26595
L27138 26595
L27194 26623
L27223 26679
L27223 26989
" />
<path d="M27729 26961
L27672 26989
L27560 26989
L27504 26961
L27476 26904
L27476 26679
L27504 26623
L27560 26595
L27672 26595
L27729 26623
L27757 26679
L27757 26736
L27476 26792
" />
<path d="M27954 26595
L28066 26989
L28179 26707
L28291 26989
L28404 26595
" />
<path d="M28713 26989
L28657 26961
L28629 26932
L28600 26876
L28600 26707
L28629 26651
L28657 26623
L28713 26595
L28797 26595
L28854 26623
L28882 26651
L28910 26707
L28910 26876
L28882 26932
L28854 26961
L28797 26989
L28713 26989
" />
<path d="M29163 26989
L29163 26595
" />
<path d="M29163 26707
L29191 26651
L29219 26623
L29275 26595
L29332 26595
" />
<path d="M29528 26989
L29528 26398
" />
<path d="M29585 26764
L29753 26989
" />
<path d="M29753 26595
L29528 26820
" />
<path d="M30372 26398
L30710 26398
" />
<path d="M30541 26989
L30541 26398
" />
<path d="M30906 26989
L30906 26595
" />
<path d="M30906 26707
L30935 26651
L30963 26623
L31019 26595
L31075 26595
" />
<path d="M31525 26989
L31525 26679
L31497 26623
L31441 26595
L31328 26595
L31272 26623
" />
<path d="M31525 26961
L31469 26989
L31328 26989
L31272 26961
L31244 26904
L31244 26848
L31272 26792
L31328 26764
L31469 26764
L31525 26736
" />
<path d="M32059 26961
L32003 26989
L31891 26989
L31834 26961
L31806 26932
L31778 26876
L31778 26707
L31806 26651
L31834 26623
L31891 26595
L32003 26595
L32059 26623
" />
<path d="M32312 26989
L32312 26398
" />
<path d="M32369 26764
L32537 26989
" />
<path d="M32537 26595
L32312 26820
" />
<path d="M33016 26961
L32959 26989
L32847 26989
L32791 26961
L32762 26904
L32762 26679
L32791 26623
L32847 26595
L32959 26595
L33016 26623
L33044 26679
L33044 26736
L32762 26792
" />
<path d="M33297 26989
L33297 26595
" />
<path d="M33297 26707
L33325 26651
L33353 26623
L33409 26595
L33465 26595
" />
<path d="M34056 26595
L34197 26989
L34337 26595
" />
<path d="M34872 26989
L34534 26989
" />
<path d="M34703 26989
L34703 26398
L34647 26483
L34590 26539
L34534 26567
" />
<path d="M35575 26764
L36025 26764
" />
<path d="M37093 26989
L36896 26707
" />
<path d="M36756 26989
L36756 26398
L36981 26398
L37037 26426
L37065 26454
L37093 26511
L37093 26595
L37065 26651
L37037 26679
L36981 26707
L36756 26707
" />
<path d="M37346 26679
L37543 26679
" />
<path d="M37627 26989
L37346 26989
L37346 26398
L37627 26398
" />
<path d="M37881 26989
L37881 26398
L38077 26820
L38274 26398
L38274 26989
" />
</g>
<g style="fill:#000000; fill-opacity:0.0; 
stroke:#000000; stroke-width:0; stroke-opacity:1; 
stroke-linecap:round; stroke-linejoin:round;">
</g>
<g style="fill:#000000; fill-opacity:1.0; 
stroke:#000000; stroke-width:0; stroke-opacity:1; 
stroke-linecap:round; stroke-linejoin:round;">
<polyline style="fill-rule:evenodd;"
points="13415,15324
13415,16072
12627,16072
12627,15324
13415,15324
" /> 
<circle cx="13021.7" cy="14698.4" r="374.016" /> 
</g>
<g style="fill:#000000; fill-opacity:1.0; 
stroke:#000000; stroke-width:39.3701; stroke-opacity:1; 
stroke-linecap:round; stroke-linejoin:round;">
</g>
<g style="fill:#000000; fill-opacity:1.0; 
stroke:#000000; stroke-width:0; stroke-opacity:1; 
stroke-linecap:round; stroke-linejoin:round;">
<polyline style="fill-rule:evenodd;"
points="17746,15324
17746,16072
16958,16072
16958,15324
17746,15324
" /> 
<circle cx="17352.4" cy="14698.4" r="374.016" /> 
</g>
<g style="fill:#000000; fill-opacity:1.0; 
stroke:#000000; stroke-width:39.3701; stroke-opacity:1; 
stroke-linecap:round; stroke-linejoin:round;">
</g>
<g style="fill:#000000; fill-opacity:1.0; 
stroke:#000000; stroke-width:0; stroke-opacity:1; 
stroke-linecap:round; stroke-linejoin:round;">
<polyline style="fill-rule:evenodd;"
points="22076,15324
22076,16072
21289,16072
21289,15324
22076,15324
" /> 
<circle cx="21683.1" cy="14698.4" r="374.016" /> 
</g>
<g style="fill:#000000; fill-opacity:1.0; 
stroke:#000000; stroke-width:39.3701; stroke-opacity:1; 
stroke-linecap:round; stroke-linejoin:round;">
</g>
<g style="fill:#000000; fill-opacity:1.0; 
stroke:#000000; stroke-width:0; stroke-opacity:1; 
stroke-linecap:round; stroke-linejoin:round;">
<polyline style="fill-rule:evenodd;"
points="26407,15324
26407,16072
25620,16072
25620,15324
26407,15324
" /> 
<circle cx="26013.8" cy="14698.4" r="374.016" /> 
</g>
<g style="fill:#000000; fill-opacity:1.0; 
stroke:#000000; stroke-width:39.3701; stroke-opacity:1; 
stroke-linecap:round; stroke-linejoin:round;">
</g>
<g style="fill:#000000; fill-opacity:1.0; 
stroke:#000000; stroke-width:0; stroke-opacity:1; 
stroke-linecap:round; stroke-linejoin:round;">
<polyline style="fill-rule:evenodd;"
points="30738,15324
30738,16072
29950,16072
29950,15324
30738,15324
" /> 
<circle cx="30344.5" cy="14698.4" r="374.016" /> 
</g>
<g style="fill:#000000; fill-opacity:1.0; 
stroke:#000000; stroke-width:39.3701; stroke-opacity:1; 
stroke-linecap:round; stroke-linejoin:round;">
</g>
<g style="fill:#000000; fill-opacity:1.0; 
stroke:#000000; stroke-width:0; stroke-opacity:1; 
stroke-linecap:round; stroke-linejoin:round;">
<polyline style="fill-rule:evenodd;"
points="14542,22397
13862,22397
13862,21597
14542,21597
14542,22397
" /> 
</g>
<g style="fill:#000000; fill-opacity:1.0; 
stroke:#000000; stroke-width:680; stroke-opacity:1; 
stroke-linecap:round; stroke-linejoin:round;">
</g>
<g style="fill:#000000; fill-opacity:0.0; 
stroke:#000000; stroke-width:680; stroke-opacity:1; 
stroke-linecap:round; stroke-linejoin:round;">
<path d="M15202 22057
L15202 21937
" />
<path d="M16202 22057
L16202 21937
" />
<path d="M17202 22057
L17202 21937
" />
</g>
<g style="fill:#000000; fill-opacity:1.0; 
stroke:#000000; stroke-width:0; stroke-opacity:1; 
stroke-linecap:round; stroke-linejoin:round;">
<circle cx="13021.7" cy="8611.81" r="393.5" /> 
</g>
<g style="fill:#000000; fill-opacity:1.0; 
stroke:#000000; stroke-width:39.3701; stroke-opacity:1; 
stroke-linecap:round; stroke-linejoin:round;">
</g>
<g style="fill:#000000; fill-opacity:1.0; 
stroke:#000000; stroke-width:0; stroke-opacity:1; 
stroke-linecap:round; stroke-linejoin:round;">
<circle cx="13021.7" cy="12611.8" r="393.5" /> 
</g>
<g style="fill:#000000; fill-opacity:1.0; 
stroke:#000000; stroke-width:39.3701; stroke-opacity:1; 
stroke-linecap:round; stroke-linejoin:round;">
</g>
<g style="fill:#000000; fill-opacity:1.0; 
stroke:#000000; stroke-width:0; stroke-opacity:1; 
stroke-linecap:round; stroke-linejoin:round;">
<circle cx="17352.4" cy="8611.81" r="393.5" /> 
</g>
<g style="fill:#000000; fill-opacity:1.0; 
stroke:#000000; stroke-width:39.3701; stroke-opacity:1; 
stroke-linecap:round; stroke-linejoin:round;">
</g>
<g style="fill:#000000; fill-opacity:1.0; 
stroke:#000000; stroke-width:0; stroke-opacity:1; 
stroke-linecap:round; stroke-linejoin:round;">
<circle cx="17352.4" cy="12611.8" r="393.5" /> 
</g>
<g style="fill:#000000; fill-opacity:1.0; 
stroke:#000000; stroke-width:39.3701; stroke-opacity:1; 
stroke-linecap:round; stroke-linejoin:round;">
</g>
<g style="fill:#000000; fill-opacity:1.0; 
stroke:#000000; stroke-width:0; stroke-opacity:1; 
stroke-linecap:round; stroke-linejoin:round;">
<circle cx="21683.1" cy="8611.81" r="393.5" /> 
</g>
<g style="fill:#000000; fill-opacity:1.0; 
stroke:#000000; stroke-width:39.3701; stroke-opacity:1; 
stroke-linecap:round; stroke-linejoin:round;">
</g>
<g style="fill:#000000; fill-opacity:1.0; 
stroke:#000000; stroke-width:0; stroke-opacity:1; 
stroke-linecap:round; stroke-linejoin:round;">
<circle cx="21683.1" cy="12611.8" r="393.5" /> 
</g>
<g style="fill:#000000; fill-opacity:1.0; 
stroke:#000000; stroke-width:39.3701; stroke-opacity:1; 
stroke-linecap:round; stroke-linejoin:round;">
</g>
<g style="fill:#000000; fill-opacity:1.0; 
stroke:#000000; stroke-width:0; stroke-opacity:1; 
stroke-linecap:round; stroke-linejoin:round;">
<circle cx="26013.8" cy="8611.81" r="393.5" /> 
</g>
<g style="fill:#000000; fill-opacity:1.0; 
stroke:#000000; stroke-width:39.3701; stroke-opacity:1; 
stroke-linecap:round; stroke-linejoin:round;">
</g>
<g style="fill:#000000; fill-opacity:1.0; 
stroke:#000000; stroke-width:0; stroke-opacity:1; 
stroke-linecap:round; stroke-linejoin:round;">
<circle cx="26013.8" cy="12611.8" r="393.5" /> 
</g>
<g style="fill:#000000; fill-opacity:1.0; 
stroke:#000000; stroke-width:39.3701; stroke-opacity:1; 
stroke-linecap:round; stroke-linejoin:round;">
</g>
<g style="fill:#000000; fill-opacity:1.0; 
stroke:#000000; stroke-width:0; stroke-opacity:1; 
stroke-linecap:round; stroke-linejoin:round;">
<circle cx="30344.5" cy="8611.81" r="393.5" /> 
</g>
<g style="fill:#000000; fill-opacity:1.0; 
stroke:#000000; stroke-width:39.3701; stroke-opacity:1; 
stroke-linecap:round; stroke-linejoin:round;">
</g>
<g style="fill:#000000; fill-opacity:1.0; 
stroke:#000000; stroke-width:0; stroke-opacity:1; 
stroke-linecap:round; stroke-linejoin:round;">
<circle cx="30344.5" cy="12611.8" r="393.5" /> 
</g>
<g style="fill:#000000; fill-opacity:1.0; 
stroke:#000000; stroke-width:39.3701; stroke-opacity:1; 
stroke-linecap:round; stroke-linejoin:round;">
</g>
<g style="fill:#000000; fill-opacity:1.0; 
stroke:#000000; stroke-width:600; stroke-opacity:1; 
stroke-linecap:round; stroke-linejoin:round;">
</g>
<g style="fill:#000000; fill-opacity:0.0; 
stroke:#000000; stroke-width:600; stroke-opacity:1; 
stroke-linecap:round; stroke-linejoin:round;">
<path d="M30935 22378
L30935 21978
" />
<path d="M29935 22378
L29935 21978
" />
<path d="M28935 22378
L28935 21978
" />
<path d="M25935 22378
L25935 21978
" />
<path d="M26935 22378
L26935 21978
" />
<path d="M27935 22378
L27935 21978
" />
<path d="M23935 22378
L23935 21978
" />
<path d="M22935 22378
L22935 21978
" />
<path d="M21935 22378
L21935 21978
" />
<path d="M19935 22378
L19935 21978
" />
<path d="M18935 22378
L18935 21978
" />
<path d="M30935 3378
L30935 2978
" />
<path d="M29935 3378
L29935 2978
" />
<path d="M28935 3378
L28935 2978
" />
<path d="M27935 3378
L27935 2978
" />
<path d="M26935 3378
L26935 2978
" />
<path d="M25935 3378
L25935 2978
" />
<path d="M24935 3378
L24935 2978
" />
<path d="M23935 3378
L23935 2978
" />
<path d="M22335 3378
L22335 2978
" />
<path d="M21335 3378
L21335 2978
" />
<path d="M20335 3378
L20335 2978
" />
<path d="M19335 3378
L19335 2978
" />
<path d="M18335 3378
L18335 2978
" />
<path d="M17335 3378
L17335 2978
" />
<path d="M16335 3378
L16335 2978
" />
<path d="M15335 3378
L15335 2978
" />
<path d="M20935 22378
L20935 21978
" />
</g>
<g style="fill:#000000; fill-opacity:1.0; 
stroke:#000000; stroke-width:0; stroke-opacity:1; 
stroke-linecap:round; stroke-linejoin:round;">
<circle cx="31935" cy="20178.7" r="775" /> 
</g>
<g style="fill:#000000; fill-opacity:1.0; 
stroke:#000000; stroke-width:39.3701; stroke-opacity:1; 
stroke-linecap:round; stroke-linejoin:round;">
</g>
<g style="fill:#000000; fill-opacity:1.0; 
stroke:#000000; stroke-width:0; stroke-opacity:1; 
stroke-linecap:round; stroke-linejoin:round;">
<circle cx="31935" cy="9178.74" r="775" /> 
</g>
<g style="fill:#000000; fill-opacity:1.0; 
stroke:#000000; stroke-width:39.3701; stroke-opacity:1; 
stroke-linecap:round; stroke-linejoin:round;">
</g>
<g style="fill:#000000; fill-opacity:1.0; 
stroke:#000000; stroke-width:0; stroke-opacity:1; 
stroke-linecap:round; stroke-linejoin:round;">
<circle cx="11935" cy="3178.74" r="775" /> 
</g>
<g style="fill:#000000; fill-opacity:1.0; 
stroke:#000000; stroke-width:39.3701; stroke-opacity:1; 
stroke-linecap:round; stroke-linejoin:round;">
</g>
<g style="fill:#000000; fill-opacity:1.0; 
stroke:#000000; stroke-width:0; stroke-opacity:1; 
stroke-linecap:round; stroke-linejoin:round;">
<circle cx="11435" cy="22178.7" r="775" /> 
</g>
<g style="fill:#000000; fill-opacity:1.0; 
stroke:#000000; stroke-width:39.3701; stroke-opacity:1; 
stroke-linecap:round; stroke-linejoin:round;">
</g>
<g style="fill:#000000; fill-opacity:1.0; 
stroke:#000000; stroke-width:393.701; stroke-opacity:1; 
stroke-linecap:round; stroke-linejoin:round;">
</g>
<g style="fill:#000000; fill-opacity:0.0; 
stroke:#000000; stroke-width:393.701; stroke-opacity:1; 
stroke-linecap:round; stroke-linejoin:round;">
<path d="M17352 21603
L17352 21848
" />
<path d="M17352 21848
L17202 21997
" />
<path d="M17352 15698
L17352 21603
" />
<path d="M17352 21848
L17202 21997
" />
<path d="M22935 22178
L22935 20887
" />
<path d="M27194 18848
L30344 15698
" />
<path d="M24974 18848
L27194 18848
" />
<path d="M22935 20887
L24974 18848
" />
<path d="M26013 15698
L21683 15698
" />
<path d="M21683 15698
L17352 15698
" />
<path d="M17352 15698
L13021 15698
" />
<path d="M30344 15698
L26013 15698
" />
<path d="M13021 12611
L13021 14698
" />
<path d="M17352 12611
L17352 14698
" />
<path d="M21683 12611
L21683 14698
" />
<path d="M26013 12611
L26013 14698
" />
<path d="M30344 12611
L30344 14698
" />
<path d="M14202 21997
L14202 23572
" />
<path d="M20935 23533
L20935 22178
" />
<path d="M20895 23572
L20935 23533
" />
<path d="M14202 23572
L20895 23572
" />
<path d="M15202 21997
L15202 21029
" />
<path d="M21335 1570
L21335 3178
" />
<path d="M21289 1525
L21335 1570
" />
<path d="M8297 1525
L21289 1525
" />
<path d="M8297 19635
L8297 1525
" />
<path d="M13809 19635
L8297 19635
" />
<path d="M15202 21029
L13809 19635
" />
<path d="M16202 21997
L16202 18485
" />
<path d="M20335 4841
L20335 3178
" />
<path d="M20108 5068
L20335 4841
" />
<path d="M10265 5068
L20108 5068
" />
<path d="M10265 18454
L10265 5068
" />
<path d="M16171 18454
L10265 18454
" />
<path d="M16202 18485
L16171 18454
" />
<path d="M24935 3178
L24935 4178
" />
<path d="M17352 7037
L13021 8611
" />
<path d="M24438 4674
L17352 7037
" />
<path d="M24935 4178
L24438 4674
" />
<path d="M25935 3178
L25935 5383
" />
<path d="M17352 8611
L17352 8611
" />
<path d="M25856 5462
L17352 8611
" />
<path d="M25935 5383
L25856 5462
" />
<path d="M26935 3178
L26935 5722
" />
<path d="M24045 8611
L21683 8611
" />
<path d="M26935 5722
L24045 8611
" />
<path d="M27935 3178
L27935 6690
" />
<path d="M27935 6690
L26013 8611
" />
<path d="M28935 3178
L28935 7202
" />
<path d="M28935 7202
L30344 8611
" />
</g>
<g style="fill:#FFFFFF; fill-opacity:0.0; 
stroke:#FFFFFF; stroke-width:393.701; stroke-opacity:1; 
stroke-linecap:round; stroke-linejoin:round;">
</g>
<g style="fill:#FFFFFF; fill-opacity:1.0; 
stroke:#FFFFFF; stroke-width:0; stroke-opacity:1; 
stroke-linecap:round; stroke-linejoin:round;">
<circle cx="13021.7" cy="15698.4" r="197" /> 
</g>
<g style="fill:#FFFFFF; fill-opacity:1.0; 
stroke:#FFFFFF; stroke-width:39.3701; stroke-opacity:1; 
stroke-linecap:round; stroke-linejoin:round;">
</g>
<g style="fill:#FFFFFF; fill-opacity:1.0; 
stroke:#FFFFFF; stroke-width:0; stroke-opacity:1; 
stroke-linecap:round; stroke-linejoin:round;">
<circle cx="13021.7" cy="14698.4" r="197" /> 
</g>
<g style="fill:#FFFFFF; fill-opacity:1.0; 
stroke:#FFFFFF; stroke-width:39.3701; stroke-opacity:1; 
stroke-linecap:round; stroke-linejoin:round;">
</g>
<g style="fill:#FFFFFF; fill-opacity:1.0; 
stroke:#FFFFFF; stroke-width:0; stroke-opacity:1; 
stroke-linecap:round; stroke-linejoin:round;">
<circle cx="17352.4" cy="15698.4" r="197" /> 
</g>
<g style="fill:#FFFFFF; fill-opacity:1.0; 
stroke:#FFFFFF; stroke-width:39.3701; stroke-opacity:1; 
stroke-linecap:round; stroke-linejoin:round;">
</g>
<g style="fill:#FFFFFF; fill-opacity:1.0; 
stroke:#FFFFFF; stroke-width:0; stroke-opacity:1; 
stroke-linecap:round; stroke-linejoin:round;">
<circle cx="17352.4" cy="14698.4" r="197" /> 
</g>
<g style="fill:#FFFFFF; fill-opacity:1.0; 
stroke:#FFFFFF; stroke-width:39.3701; stroke-opacity:1; 
stroke-linecap:round; stroke-linejoin:round;">
</g>
<g style="fill:#FFFFFF; fill-opacity:1.0; 
stroke:#FFFFFF; stroke-width:0; stroke-opacity:1; 
stroke-linecap:round; stroke-linejoin:round;">
<circle cx="21683.1" cy="15698.4" r="197" /> 
</g>
<g style="fill:#FFFFFF; fill-opacity:1.0; 
stroke:#FFFFFF; stroke-width:39.3701; stroke-opacity:1; 
stroke-linecap:round; stroke-linejoin:round;">
</g>
<g style="fill:#FFFFFF; fill-opacity:1.0; 
stroke:#FFFFFF; stroke-width:0; stroke-opacity:1; 
stroke-linecap:round; stroke-linejoin:round;">
<circle cx="21683.1" cy="14698.4" r="197" /> 
</g>
<g style="fill:#FFFFFF; fill-opacity:1.0; 
stroke:#FFFFFF; stroke-width:39.3701; stroke-opacity:1; 
stroke-linecap:round; stroke-linejoin:round;">
</g>
<g style="fill:#FFFFFF; fill-opacity:1.0; 
stroke:#FFFFFF; stroke-width:0; stroke-opacity:1; 
stroke-linecap:round; stroke-linejoin:round;">
<circle cx="26013.8" cy="15698.4" r="197" /> 
</g>
<g style="fill:#FFFFFF; fill-opacity:1.0; 
stroke:#FFFFFF; stroke-width:39.3701; stroke-opacity:1; 
stroke-linecap:round; stroke-linejoin:round;">
</g>
<g style="fill:#FFFFFF; fill-opacity:1.0; 
stroke:#FFFFFF; stroke-width:0; stroke-opacity:1; 
stroke-linecap:round; stroke-linejoin:round;">
<circle cx="26013.8" cy="14698.4" r="197" /> 
</g>
<g style="fill:#FFFFFF; fill-opacity:1.0; 
stroke:#FFFFFF; stroke-width:39.3701; stroke-opacity:1; 
stroke-linecap:round; stroke-linejoin:round;">
</g>
<g style="fill:#FFFFFF; fill-opacity:1.0; 
stroke:#FFFFFF; stroke-width:0; stroke-opacity:1; 
stroke-linecap:round; stroke-linejoin:round;">
<circle cx="30344.5" cy="15698.4" r="197" /> 
</g>
<g style="fill:#FFFFFF; fill-opacity:1.0; 
stroke:#FFFFFF; stroke-width:39.3701; stroke-opacity:1; 
stroke-linecap:round; stroke-linejoin:round;">
</g>
<g style="fill:#FFFFFF; fill-opacity:1.0; 
stroke:#FFFFFF; stroke-width:0; stroke-opacity:1; 
stroke-linecap:round; stroke-linejoin:round;">
<circle cx="30344.5" cy="14698.4" r="197" /> 
</g>
<g style="fill:#FFFFFF; fill-opacity:1.0; 
stroke:#FFFFFF; stroke-width:39.3701; stroke-opacity:1; 
stroke-linecap:round; stroke-linejoin:round;">
</g>
<g style="fill:#FFFFFF; fill-opacity:1.0; 
stroke:#FFFFFF; stroke-width:0; stroke-opacity:1; 
stroke-linecap:round; stroke-linejoin:round;">
<circle cx="14202.8" cy="21997.6" r="200" /> 
</g>
<g style="fill:#FFFFFF; fill-opacity:1.0; 
stroke:#FFFFFF; stroke-width:39.3701; stroke-opacity:1; 
stroke-linecap:round; stroke-linejoin:round;">
</g>
<g style="fill:#FFFFFF; fill-opacity:1.0; 
stroke:#FFFFFF; stroke-width:0; stroke-opacity:1; 
stroke-linecap:round; stroke-linejoin:round;">
<circle cx="15202.8" cy="21997.6" r="200" /> 
</g>
<g style="fill:#FFFFFF; fill-opacity:1.0; 
stroke:#FFFFFF; stroke-width:39.3701; stroke-opacity:1; 
stroke-linecap:round; stroke-linejoin:round;">
</g>
<g style="fill:#FFFFFF; fill-opacity:1.0; 
stroke:#FFFFFF; stroke-width:0; stroke-opacity:1; 
stroke-linecap:round; stroke-linejoin:round;">
<circle cx="16202.8" cy="21997.6" r="200" /> 
</g>
<g style="fill:#FFFFFF; fill-opacity:1.0; 
stroke:#FFFFFF; stroke-width:39.3701; stroke-opacity:1; 
stroke-linecap:round; stroke-linejoin:round;">
</g>
<g style="fill:#FFFFFF; fill-opacity:1.0; 
stroke:#FFFFFF; stroke-width:0; stroke-opacity:1; 
stroke-linecap:round; stroke-linejoin:round;">
<circle cx="17202.8" cy="21997.6" r="200" /> 
</g>
<g style="fill:#FFFFFF; fill-opacity:1.0; 
stroke:#FFFFFF; stroke-width:39.3701; stroke-opacity:1; 
stroke-linecap:round; stroke-linejoin:round;">
</g>
<g style="fill:#FFFFFF; fill-opacity:1.0; 
stroke:#FFFFFF; stroke-width:0; stroke-opacity:1; 
stroke-linecap:round; stroke-linejoin:round;">
<circle cx="13021.7" cy="8611.81" r="197" /> 
</g>
<g style="fill:#FFFFFF; fill-opacity:1.0; 
stroke:#FFFFFF; stroke-width:39.3701; stroke-opacity:1; 
stroke-linecap:round; stroke-linejoin:round;">
</g>
<g style="fill:#FFFFFF; fill-opacity:1.0; 
stroke:#FFFFFF; stroke-width:0; stroke-opacity:1; 
stroke-linecap:round; stroke-linejoin:round;">
<circle cx="13021.7" cy="12611.8" r="197" /> 
</g>
<g style="fill:#FFFFFF; fill-opacity:1.0; 
stroke:#FFFFFF; stroke-width:39.3701; stroke-opacity:1; 
stroke-linecap:round; stroke-linejoin:round;">
</g>
<g style="fill:#FFFFFF; fill-opacity:1.0; 
stroke:#FFFFFF; stroke-width:0; stroke-opacity:1; 
stroke-linecap:round; stroke-linejoin:round;">
<circle cx="17352.4" cy="8611.81" r="197" /> 
</g>
<g style="fill:#FFFFFF; fill-opacity:1.0; 
stroke:#FFFFFF; stroke-width:39.3701; stroke-opacity:1; 
stroke-linecap:round; stroke-linejoin:round;">
</g>
<g style="fill:#FFFFFF; fill-opacity:1.0; 
stroke:#FFFFFF; stroke-width:0; stroke-opacity:1; 
stroke-linecap:round; stroke-linejoin:round;">
<circle cx="17352.4" cy="12611.8" r="197" /> 
</g>
<g style="fill:#FFFFFF; fill-opacity:1.0; 
stroke:#FFFFFF; stroke-width:39.3701; stroke-opacity:1; 
stroke-linecap:round; stroke-linejoin:round;">
</g>
<g style="fill:#FFFFFF; fill-opacity:1.0; 
stroke:#FFFFFF; stroke-width:0; stroke-opacity:1; 
stroke-linecap:round; stroke-linejoin:round;">
<circle cx="21683.1" cy="8611.81" r="197" /> 
</g>
<g style="fill:#FFFFFF; fill-opacity:1.0; 
stroke:#FFFFFF; stroke-width:39.3701; stroke-opacity:1; 
stroke-linecap:round; stroke-linejoin:round;">
</g>
<g style="fill:#FFFFFF; fill-opacity:1.0; 
stroke:#FFFFFF; stroke-width:0; stroke-opacity:1; 
stroke-linecap:round; stroke-linejoin:round;">
<circle cx="21683.1" cy="12611.8" r="197" /> 
</g>
<g style="fill:#FFFFFF; fill-opacity:1.0; 
stroke:#FFFFFF; stroke-width:39.3701; stroke-opacity:1; 
stroke-linecap:round; stroke-linejoin:round;">
</g>
<g style="fill:#FFFFFF; fill-opacity:1.0; 
stroke:#FFFFFF; stroke-width:0; stroke-opacity:1; 
stroke-linecap:round; stroke-linejoin:round;">
<circle cx="26013.8" cy="8611.81" r="197" /> 
</g>
<g style="fill:#FFFFFF; fill-opacity:1.0; 
stroke:#FFFFFF; stroke-width:39.3701; stroke-opacity:1; 
stroke-linecap:round; stroke-linejoin:round;">
</g>
<g style="fill:#FFFFFF; fill-opacity:1.0; 
stroke:#FFFFFF; stroke-width:0; stroke-opacity:1; 
stroke-linecap:round; stroke-linejoin:round;">
<circle cx="26013.8" cy="12611.8" r="197" /> 
</g>
<g style="fill:#FFFFFF; fill-opacity:1.0; 
stroke:#FFFFFF; stroke-width:39.3701; stroke-opacity:1; 
stroke-linecap:round; stroke-linejoin:round;">
</g>
<g style="fill:#FFFFFF; fill-opacity:1.0; 
stroke:#FFFFFF; stroke-width:0; stroke-opacity:1; 
stroke-linecap:round; stroke-linejoin:round;">
<circle cx="30344.5" cy="8611.81" r="197" /> 
</g>
<g style="fill:#FFFFFF; fill-opacity:1.0; 
stroke:#FFFFFF; stroke-width:39.3701; stroke-opacity:1; 
stroke-linecap:round; stroke-linejoin:round;">
</g>
<g style="fill:#FFFFFF; fill-opacity:1.0; 
stroke:#FFFFFF; stroke-width:0; stroke-opacity:1; 
stroke-linecap:round; stroke-linejoin:round;">
<circle cx="30344.5" cy="12611.8" r="197" /> 
</g>
<g style="fill:#FFFFFF; fill-opacity:1.0; 
stroke:#FFFFFF; stroke-width:39.3701; stroke-opacity:1; 
stroke-linecap:round; stroke-linejoin:round;">
</g>
<g style="fill:#FFFFFF; fill-opacity:1.0; 
stroke:#FFFFFF; stroke-width:0; stroke-opacity:1; 
stroke-linecap:round; stroke-linejoin:round;">
<circle cx="30935" cy="22178.7" r="160" /> 
</g>
<g style="fill:#FFFFFF; fill-opacity:1.0; 
stroke:#FFFFFF; stroke-width:39.3701; stroke-opacity:1; 
stroke-linecap:round; stroke-linejoin:round;">
</g>
<g style="fill:#FFFFFF; fill-opacity:1.0; 
stroke:#FFFFFF; stroke-width:0; stroke-opacity:1; 
stroke-linecap:round; stroke-linejoin:round;">
<circle cx="29935" cy="22178.7" r="160" /> 
</g>
<g style="fill:#FFFFFF; fill-opacity:1.0; 
stroke:#FFFFFF; stroke-width:39.3701; stroke-opacity:1; 
stroke-linecap:round; stroke-linejoin:round;">
</g>
<g style="fill:#FFFFFF; fill-opacity:1.0; 
stroke:#FFFFFF; stroke-width:0; stroke-opacity:1; 
stroke-linecap:round; stroke-linejoin:round;">
<circle cx="28935" cy="22178.7" r="160" /> 
</g>
<g style="fill:#FFFFFF; fill-opacity:1.0; 
stroke:#FFFFFF; stroke-width:39.3701; stroke-opacity:1; 
stroke-linecap:round; stroke-linejoin:round;">
</g>
<g style="fill:#FFFFFF; fill-opacity:1.0; 
stroke:#FFFFFF; stroke-width:0; stroke-opacity:1; 
stroke-linecap:round; stroke-linejoin:round;">
<circle cx="25935" cy="22178.7" r="160" /> 
</g>
<g style="fill:#FFFFFF; fill-opacity:1.0; 
stroke:#FFFFFF; stroke-width:39.3701; stroke-opacity:1; 
stroke-linecap:round; stroke-linejoin:round;">
</g>
<g style="fill:#FFFFFF; fill-opacity:1.0; 
stroke:#FFFFFF; stroke-width:0; stroke-opacity:1; 
stroke-linecap:round; stroke-linejoin:round;">
<circle cx="26935" cy="22178.7" r="160" /> 
</g>
<g style="fill:#FFFFFF; fill-opacity:1.0; 
stroke:#FFFFFF; stroke-width:39.3701; stroke-opacity:1; 
stroke-linecap:round; stroke-linejoin:round;">
</g>
<g style="fill:#FFFFFF; fill-opacity:1.0; 
stroke:#FFFFFF; stroke-width:0; stroke-opacity:1; 
stroke-linecap:round; stroke-linejoin:round;">
<circle cx="27935" cy="22178.7" r="160" /> 
</g>
<g style="fill:#FFFFFF; fill-opacity:1.0; 
stroke:#FFFFFF; stroke-width:39.3701; stroke-opacity:1; 
stroke-linecap:round; stroke-linejoin:round;">
</g>
<g style="fill:#FFFFFF; fill-opacity:1.0; 
stroke:#FFFFFF; stroke-width:0; stroke-opacity:1; 
stroke-linecap:round; stroke-linejoin:round;">
<circle cx="23935" cy="22178.7" r="160" /> 
</g>
<g style="fill:#FFFFFF; fill-opacity:1.0; 
stroke:#FFFFFF; stroke-width:39.3701; stroke-opacity:1; 
stroke-linecap:round; stroke-linejoin:round;">
</g>
<g style="fill:#FFFFFF; fill-opacity:1.0; 
stroke:#FFFFFF; stroke-width:0; stroke-opacity:1; 
stroke-linecap:round; stroke-linejoin:round;">
<circle cx="22935" cy="22178.7" r="160" /> 
</g>
<g style="fill:#FFFFFF; fill-opacity:1.0; 
stroke:#FFFFFF; stroke-width:39.3701; stroke-opacity:1; 
stroke-linecap:round; stroke-linejoin:round;">
</g>
<g style="fill:#FFFFFF; fill-opacity:1.0; 
stroke:#FFFFFF; stroke-width:0; stroke-opacity:1; 
stroke-linecap:round; stroke-linejoin:round;">
<circle cx="21935" cy="22178.7" r="160" /> 
</g>
<g style="fill:#FFFFFF; fill-opacity:1.0; 
stroke:#FFFFFF; stroke-width:39.3701; stroke-opacity:1; 
stroke-linecap:round; stroke-linejoin:round;">
</g>
<g style="fill:#FFFFFF; fill-opacity:1.0; 
stroke:#FFFFFF; stroke-width:0; stroke-opacity:1; 
stroke-linecap:round; stroke-linejoin:round;">
<circle cx="19935" cy="22178.7" r="160" /> 
</g>
<g style="fill:#FFFFFF; fill-opacity:1.0; 
stroke:#FFFFFF; stroke-width:39.3701; stroke-opacity:1; 
stroke-linecap:round; stroke-linejoin:round;">
</g>
<g style="fill:#FFFFFF; fill-opacity:1.0; 
stroke:#FFFFFF; stroke-width:0; stroke-opacity:1; 
stroke-linecap:round; stroke-linejoin:round;">
<circle cx="18935" cy="22178.7" r="160" /> 
</g>
<g style="fill:#FFFFFF; fill-opacity:1.0; 
stroke:#FFFFFF; stroke-width:39.3701; stroke-opacity:1; 
stroke-linecap:round; stroke-linejoin:round;">
</g>
<g style="fill:#FFFFFF; fill-opacity:1.0; 
stroke:#FFFFFF; stroke-width:0; stroke-opacity:1; 
stroke-linecap:round; stroke-linejoin:round;">
<circle cx="30935" cy="3178.74" r="160" /> 
</g>
<g style="fill:#FFFFFF; fill-opacity:1.0; 
stroke:#FFFFFF; stroke-width:39.3701; stroke-opacity:1; 
stroke-linecap:round; stroke-linejoin:round;">
</g>
<g style="fill:#FFFFFF; fill-opacity:1.0; 
stroke:#FFFFFF; stroke-width:0; stroke-opacity:1; 
stroke-linecap:round; stroke-linejoin:round;">
<circle cx="29935" cy="3178.74" r="160" /> 
</g>
<g style="fill:#FFFFFF; fill-opacity:1.0; 
stroke:#FFFFFF; stroke-width:39.3701; stroke-opacity:1; 
stroke-linecap:round; stroke-linejoin:round;">
</g>
<g style="fill:#FFFFFF; fill-opacity:1.0; 
stroke:#FFFFFF; stroke-width:0; stroke-opacity:1; 
stroke-linecap:round; stroke-linejoin:round;">
<circle cx="28935" cy="3178.74" r="160" /> 
</g>
<g style="fill:#FFFFFF; fill-opacity:1.0; 
stroke:#FFFFFF; stroke-width:39.3701; stroke-opacity:1; 
stroke-linecap:round; stroke-linejoin:round;">
</g>
<g style="fill:#FFFFFF; fill-opacity:1.0; 
stroke:#FFFFFF; stroke-width:0; stroke-opacity:1; 
stroke-linecap:round; stroke-linejoin:round;">
<circle cx="27935" cy="3178.74" r="160" /> 
</g>
<g style="fill:#FFFFFF; fill-opacity:1.0; 
stroke:#FFFFFF; stroke-width:39.3701; stroke-opacity:1; 
stroke-linecap:round; stroke-linejoin:round;">
</g>
<g style="fill:#FFFFFF; fill-opacity:1.0; 
stroke:#FFFFFF; stroke-width:0; stroke-opacity:1; 
stroke-linecap:round; stroke-linejoin:round;">
<circle cx="26935" cy="3178.74" r="160" /> 
</g>
<g style="fill:#FFFFFF; fill-opacity:1.0; 
stroke:#FFFFFF; stroke-width:39.3701; stroke-opacity:1; 
stroke-linecap:round; stroke-linejoin:round;">
</g>
<g style="fill:#FFFFFF; fill-opacity:1.0; 
stroke:#FFFFFF; stroke-width:0; stroke-opacity:1; 
stroke-linecap:round; stroke-linejoin:round;">
<circle cx="25935" cy="3178.74" r="160" /> 
</g>
<g style="fill:#FFFFFF; fill-opacity:1.0; 
stroke:#FFFFFF; stroke-width:39.3701; stroke-opacity:1; 
stroke-linecap:round; stroke-linejoin:round;">
</g>
<g style="fill:#FFFFFF; fill-opacity:1.0; 
stroke:#FFFFFF; stroke-width:0; stroke-opacity:1; 
stroke-linecap:round; stroke-linejoin:round;">
<circle cx="24935" cy="3178.74" r="160" /> 
</g>
<g style="fill:#FFFFFF; fill-opacity:1.0; 
stroke:#FFFFFF; stroke-width:39.3701; stroke-opacity:1; 
stroke-linecap:round; stroke-linejoin:round;">
</g>
<g style="fill:#FFFFFF; fill-opacity:1.0; 
stroke:#FFFFFF; stroke-width:0; stroke-opacity:1; 
stroke-linecap:round; stroke-linejoin:round;">
<circle cx="23935" cy="3178.74" r="160" /> 
</g>
<g style="fill:#FFFFFF; fill-opacity:1.0; 
stroke:#FFFFFF; stroke-width:39.3701; stroke-opacity:1; 
stroke-linecap:round; stroke-linejoin:round;">
</g>
<g style="fill:#FFFFFF; fill-opacity:1.0; 
stroke:#FFFFFF; stroke-width:0; stroke-opacity:1; 
stroke-linecap:round; stroke-linejoin:round;">
<circle cx="22335" cy="3178.74" r="160" /> 
</g>
<g style="fill:#FFFFFF; fill-opacity:1.0; 
stroke:#FFFFFF; stroke-width:39.3701; stroke-opacity:1; 
stroke-linecap:round; stroke-linejoin:round;">
</g>
<g style="fill:#FFFFFF; fill-opacity:1.0; 
stroke:#FFFFFF; stroke-width:0; stroke-opacity:1; 
stroke-linecap:round; stroke-linejoin:round;">
<circle cx="21335" cy="3178.74" r="160" /> 
</g>
<g style="fill:#FFFFFF; fill-opacity:1.0; 
stroke:#FFFFFF; stroke-width:39.3701; stroke-opacity:1; 
stroke-linecap:round; stroke-linejoin:round;">
</g>
<g style="fill:#FFFFFF; fill-opacity:1.0; 
stroke:#FFFFFF; stroke-width:0; stroke-opacity:1; 
stroke-linecap:round; stroke-linejoin:round;">
<circle cx="20335" cy="3178.74" r="160" /> 
</g>
<g style="fill:#FFFFFF; fill-opacity:1.0; 
stroke:#FFFFFF; stroke-width:39.3701; stroke-opacity:1; 
stroke-linecap:round; stroke-linejoin:round;">
</g>
<g style="fill:#FFFFFF; fill-opacity:1.0; 
stroke:#FFFFFF; stroke-width:0; stroke-opacity:1; 
stroke-linecap:round; stroke-linejoin:round;">
<circle cx="19335" cy="3178.74" r="160" /> 
</g>
<g style="fill:#FFFFFF; fill-opacity:1.0; 
stroke:#FFFFFF; stroke-width:39.3701; stroke-opacity:1; 
stroke-linecap:round; stroke-linejoin:round;">
</g>
<g style="fill:#FFFFFF; fill-opacity:1.0; 
stroke:#FFFFFF; stroke-width:0; stroke-opacity:1; 
stroke-linecap:round; stroke-linejoin:round;">
<circle cx="18335" cy="3178.74" r="160" /> 
</g>
<g style="fill:#FFFFFF; fill-opacity:1.0; 
stroke:#FFFFFF; stroke-width:39.3701; stroke-opacity:1; 
stroke-linecap:round; stroke-linejoin:round;">
</g>
<g style="fill:#FFFFFF; fill-opacity:1.0; 
stroke:#FFFFFF; stroke-width:0; stroke-opacity:1; 
stroke-linecap:round; stroke-linejoin:round;">
<circle cx="17335" cy="3178.74" r="160" /> 
</g>
<g style="fill:#FFFFFF; fill-opacity:1.0; 
stroke:#FFFFFF; stroke-width:39.3701; stroke-opacity:1; 
stroke-linecap:round; stroke-linejoin:round;">
</g>
<g style="fill:#FFFFFF; fill-opacity:1.0; 
stroke:#FFFFFF; stroke-width:0; stroke-opacity:1; 
stroke-linecap:round; stroke-linejoin:round;">
<circle cx="16335" cy="3178.74" r="160" /> 
</g>
<g style="fill:#FFFFFF; fill-opacity:1.0; 
stroke:#FFFFFF; stroke-width:39.3701; stroke-opacity:1; 
stroke-linecap:round; stroke-linejoin:round;">
</g>
<g style="fill:#FFFFFF; fill-opacity:1.0; 
stroke:#FFFFFF; stroke-width:0; stroke-opacity:1; 
stroke-linecap:round; stroke-linejoin:round;">
<circle cx="15335" cy="3178.74" r="160" /> 
</g>
<g style="fill:#FFFFFF; fill-opacity:1.0; 
stroke:#FFFFFF; stroke-width:39.3701; stroke-opacity:1; 
stroke-linecap:round; stroke-linejoin:round;">
</g>
<g style="fill:#FFFFFF; fill-opacity:1.0; 
stroke:#FFFFFF; stroke-width:0; stroke-opacity:1; 
stroke-linecap:round; stroke-linejoin:round;">
<circle cx="20935" cy="22178.7" r="160" /> 
</g>
<g style="fill:#FFFFFF; fill-opacity:1.0; 
stroke:#FFFFFF; stroke-width:39.3701; stroke-opacity:1; 
stroke-linecap:round; stroke-linejoin:round;">
</g>
<g style="fill:#FFFFFF; fill-opacity:1.0; 
stroke:#FFFFFF; stroke-width:0; stroke-opacity:1; 
stroke-linecap:round; stroke-linejoin:round;">
<circle cx="31935" cy="20178.7" r="625" /> 
</g>
<g style="fill:#FFFFFF; fill-opacity:1.0; 
stroke:#FFFFFF; stroke-width:39.3701; stroke-opacity:1; 
stroke-linecap:round; stroke-linejoin:round;">
</g>
<g style="fill:#FFFFFF; fill-opacity:1.0; 
stroke:#FFFFFF; stroke-width:0; stroke-opacity:1; 
stroke-linecap:round; stroke-linejoin:round;">
<circle cx="31935" cy="9178.74" r="625" /> 
</g>
<g style="fill:#FFFFFF; fill-opacity:1.0; 
stroke:#FFFFFF; stroke-width:39.3701; stroke-opacity:1; 
stroke-linecap:round; stroke-linejoin:round;">
</g>
<g style="fill:#FFFFFF; fill-opacity:1.0; 
stroke:#FFFFFF; stroke-width:0; stroke-opacity:1; 
stroke-linecap:round; stroke-linejoin:round;">
<circle cx="11935" cy="3178.74" r="625" /> 
</g>
<g style="fill:#FFFFFF; fill-opacity:1.0; 
stroke:#FFFFFF; stroke-width:39.3701; stroke-opacity:1; 
stroke-linecap:round; stroke-linejoin:round;">
</g>
<g style="fill:#FFFFFF; fill-opacity:1.0; 
stroke:#FFFFFF; stroke-width:0; stroke-opacity:1; 
stroke-linecap:round; stroke-linejoin:round;">
<circle cx="11435" cy="22178.7" r="625" /> 
</g>
<g style="fill:#FFFFFF; fill-opacity:1.0; 
stroke:#FFFFFF; stroke-width:39.3701; stroke-opacity:1; 
stroke-linecap:round; stroke-linejoin:round;">
</g>
<g style="fill:#000000; fill-opacity:1.0; 
stroke:#000000; stroke-width:39.3701; stroke-opacity:1; 
stroke-linecap:round; stroke-linejoin:round;">
</g>
<g style="fill:#000000; fill-opacity:0.0; 
stroke:#000000; stroke-width:39.3701; stroke-opacity:1; 
stroke-linecap:round; stroke-linejoin:round;">
</g>
<g style="fill:#000000; fill-opacity:0.0; 
stroke:#000000; stroke-width:59.0551; stroke-opacity:1; 
stroke-linecap:round; stroke-linejoin:round;">
<path d="M14380 14020
L13987 14020
L13987 13926
L14005 13870
L14043 13833
L14080 13814
L14155 13795
L14212 13795
L14287 13814
L14324 13833
L14362 13870
L14380 13926
L14380 14020
" />
<path d="M14380 13420
L14380 13645
" />
<path d="M14380 13533
L13987 13533
L14043 13570
L14080 13608
L14099 13645
" />
<path d="M14380 15164
L14380 15351
L13987 15351
" />
<path d="M14174 15032
L14174 14901
" />
<path d="M14380 14845
L14380 15032
L13987 15032
L13987 14845
" />
<path d="M14380 14676
L13987 14676
L13987 14582
L14005 14526
L14043 14489
L14080 14470
L14155 14451
L14212 14451
L14287 14470
L14324 14489
L14362 14526
L14380 14582
L14380 14676
" />
<path d="M18711 14020
L18317 14020
L18317 13926
L18336 13870
L18374 13833
L18411 13814
L18486 13795
L18542 13795
L18617 13814
L18655 13833
L18692 13870
L18711 13926
L18711 14020
" />
<path d="M18355 13645
L18336 13626
L18317 13589
L18317 13495
L18336 13458
L18355 13439
L18392 13420
L18430 13420
L18486 13439
L18711 13664
L18711 13420
" />
<path d="M18711 15164
L18711 15351
L18317 15351
" />
<path d="M18505 15032
L18505 14901
" />
<path d="M18711 14845
L18711 15032
L18317 15032
L18317 14845
" />
<path d="M18711 14676
L18317 14676
L18317 14582
L18336 14526
L18374 14489
L18411 14470
L18486 14451
L18542 14451
L18617 14470
L18655 14489
L18692 14526
L18711 14582
L18711 14676
" />
<path d="M23042 14020
L22648 14020
L22648 13926
L22667 13870
L22704 13833
L22742 13814
L22817 13795
L22873 13795
L22948 13814
L22986 13833
L23023 13870
L23042 13926
L23042 14020
" />
<path d="M22648 13664
L22648 13420
L22798 13551
L22798 13495
L22817 13458
L22836 13439
L22873 13420
L22967 13420
L23004 13439
L23023 13458
L23042 13495
L23042 13608
L23023 13645
L23004 13664
" />
<path d="M23042 15164
L23042 15351
L22648 15351
" />
<path d="M22836 15032
L22836 14901
" />
<path d="M23042 14845
L23042 15032
L22648 15032
L22648 14845
" />
<path d="M23042 14676
L22648 14676
L22648 14582
L22667 14526
L22704 14489
L22742 14470
L22817 14451
L22873 14451
L22948 14470
L22986 14489
L23023 14526
L23042 14582
L23042 14676
" />
<path d="M27372 14020
L26979 14020
L26979 13926
L26998 13870
L27035 13833
L27073 13814
L27148 13795
L27204 13795
L27279 13814
L27316 13833
L27354 13870
L27372 13926
L27372 14020
" />
<path d="M27110 13458
L27372 13458
" />
<path d="M26960 13551
L27241 13645
L27241 13401
" />
<path d="M27372 15164
L27372 15351
L26979 15351
" />
<path d="M27166 15032
L27166 14901
" />
<path d="M27372 14845
L27372 15032
L26979 15032
L26979 14845
" />
<path d="M27372 14676
L26979 14676
L26979 14582
L26998 14526
L27035 14489
L27073 14470
L27148 14451
L27204 14451
L27279 14470
L27316 14489
L27354 14526
L27372 14582
L27372 14676
" />
<path d="M31703 14020
L31309 14020
L31309 13926
L31328 13870
L31366 13833
L31403 13814
L31478 13795
L31534 13795
L31609 13814
L31647 13833
L31684 13870
L31703 13926
L31703 14020
" />
<path d="M31309 13439
L31309 13626
L31497 13645
L31478 13626
L31459 13589
L31459 13495
L31478 13458
L31497 13439
L31534 13420
L31628 13420
L31666 13439
L31684 13458
L31703 13495
L31703 13589
L31684 13626
L31666 13645
" />
<path d="M31703 15164
L31703 15351
L31309 15351
" />
<path d="M31497 15032
L31497 14901
" />
<path d="M31703 14845
L31703 15032
L31309 15032
L31309 14845
" />
<path d="M31703 14676
L31309 14676
L31309 14582
L31328 14526
L31366 14489
L31403 14470
L31478 14451
L31534 14451
L31609 14470
L31647 14489
L31684 14526
L31703 14582
L31703 14676
" />
<path d="M13068 24144
L13199 24537
L13330 24144
" />
<path d="M13687 24500
L13668 24519
L13612 24537
L13574 24537
L13518 24519
L13480 24481
L13462 24444
L13443 24369
L13443 24312
L13462 24237
L13480 24200
L13518 24162
L13574 24144
L13612 24144
L13668 24162
L13687 24181
" />
<path d="M14080 24500
L14062 24519
L14005 24537
L13968 24537
L13912 24519
L13874 24481
L13855 24444
L13837 24369
L13837 24312
L13855 24237
L13874 24200
L13912 24162
L13968 24144
L14005 24144
L14062 24162
L14080 24181
" />
<path d="M14530 24519
L14587 24537
L14680 24537
L14718 24519
L14737 24500
L14755 24462
L14755 24425
L14737 24387
L14718 24369
L14680 24350
L14605 24331
L14568 24312
L14549 24294
L14530 24256
L14530 24219
L14549 24181
L14568 24162
L14605 24144
L14699 24144
L14755 24162
" />
<path d="M14999 24144
L15074 24144
L15112 24162
L15149 24200
L15168 24275
L15168 24406
L15149 24481
L15112 24519
L15074 24537
L14999 24537
L14962 24519
L14924 24481
L14905 24406
L14905 24275
L14924 24200
L14962 24162
L14999 24144
" />
<path d="M15336 24144
L15336 24462
L15355 24500
L15374 24519
L15411 24537
L15486 24537
L15524 24519
L15543 24500
L15561 24462
L15561 24144
" />
<path d="M15693 24144
L15918 24144
" />
<path d="M15805 24537
L15805 24144
" />
<path d="M16349 24331
L16480 24331
" />
<path d="M16536 24537
L16349 24537
L16349 24144
L16536 24144
" />
<path d="M16705 24537
L16705 24144
L16930 24537
L16930 24144
" />
<path d="M17624 24162
L17586 24144
L17530 24144
L17474 24162
L17436 24200
L17417 24237
L17399 24312
L17399 24369
L17417 24444
L17436 24481
L17474 24519
L17530 24537
L17567 24537
L17624 24519
L17642 24500
L17642 24369
L17567 24369
" />
<path d="M17811 24537
L17811 24144
L18036 24537
L18036 24144
" />
<path d="M18224 24537
L18224 24144
L18317 24144
L18374 24162
L18411 24200
L18430 24237
L18449 24312
L18449 24369
L18430 24444
L18411 24481
L18374 24519
L18317 24537
L18224 24537
" />
<path d="M13199 11433
L13012 11564
" />
<path d="M13199 11658
L12806 11658
L12806 11508
L12824 11470
L12843 11452
L12881 11433
L12937 11433
L12974 11452
L12993 11470
L13012 11508
L13012 11658
" />
<path d="M13199 11058
L13199 11283
" />
<path d="M13199 11170
L12806 11170
L12862 11208
L12899 11245
L12918 11283
" />
<path d="M12843 10674
L12824 10655
L12806 10617
L12806 10524
L12824 10486
L12843 10467
L12881 10449
L12918 10449
L12974 10467
L13199 10692
L13199 10449
" />
<path d="M12843 10299
L12824 10280
L12806 10242
L12806 10149
L12824 10111
L12843 10092
L12881 10074
L12918 10074
L12974 10092
L13199 10317
L13199 10074
" />
<path d="M12806 9830
L12806 9792
L12824 9755
L12843 9736
L12881 9717
L12956 9699
L13049 9699
L13124 9717
L13162 9736
L13181 9755
L13199 9792
L13199 9830
L13181 9867
L13162 9886
L13124 9905
L13049 9924
L12956 9924
L12881 9905
L12843 9886
L12824 9867
L12806 9830
" />
<path d="M17530 11433
L17342 11564
" />
<path d="M17530 11658
L17136 11658
L17136 11508
L17155 11470
L17174 11452
L17211 11433
L17267 11433
L17305 11452
L17324 11470
L17342 11508
L17342 11658
" />
<path d="M17174 11283
L17155 11264
L17136 11227
L17136 11133
L17155 11095
L17174 11077
L17211 11058
L17249 11058
L17305 11077
L17530 11302
L17530 11058
" />
<path d="M17174 10674
L17155 10655
L17136 10617
L17136 10524
L17155 10486
L17174 10467
L17211 10449
L17249 10449
L17305 10467
L17530 10692
L17530 10449
" />
<path d="M17174 10299
L17155 10280
L17136 10242
L17136 10149
L17155 10111
L17174 10092
L17211 10074
L17249 10074
L17305 10092
L17530 10317
L17530 10074
" />
<path d="M17136 9830
L17136 9792
L17155 9755
L17174 9736
L17211 9717
L17286 9699
L17380 9699
L17455 9717
L17492 9736
L17511 9755
L17530 9792
L17530 9830
L17511 9867
L17492 9886
L17455 9905
L17380 9924
L17286 9924
L17211 9905
L17174 9886
L17155 9867
L17136 9830
" />
<path d="M21861 11433
L21673 11564
" />
<path d="M21861 11658
L21467 11658
L21467 11508
L21486 11470
L21504 11452
L21542 11433
L21598 11433
L21636 11452
L21654 11470
L21673 11508
L21673 11658
" />
<path d="M21467 11302
L21467 11058
L21617 11189
L21617 11133
L21636 11095
L21654 11077
L21692 11058
L21786 11058
L21823 11077
L21842 11095
L21861 11133
L21861 11245
L21842 11283
L21823 11302
" />
<path d="M21504 10674
L21486 10655
L21467 10617
L21467 10524
L21486 10486
L21504 10467
L21542 10449
L21579 10449
L21636 10467
L21861 10692
L21861 10449
" />
<path d="M21504 10299
L21486 10280
L21467 10242
L21467 10149
L21486 10111
L21504 10092
L21542 10074
L21579 10074
L21636 10092
L21861 10317
L21861 10074
" />
<path d="M21467 9830
L21467 9792
L21486 9755
L21504 9736
L21542 9717
L21617 9699
L21711 9699
L21786 9717
L21823 9736
L21842 9755
L21861 9792
L21861 9830
L21842 9867
L21823 9886
L21786 9905
L21711 9924
L21617 9924
L21542 9905
L21504 9886
L21486 9867
L21467 9830
" />
<path d="M26191 11433
L26004 11564
" />
<path d="M26191 11658
L25798 11658
L25798 11508
L25816 11470
L25835 11452
L25873 11433
L25929 11433
L25966 11452
L25985 11470
L26004 11508
L26004 11658
" />
<path d="M25929 11095
L26191 11095
" />
<path d="M25779 11189
L26060 11283
L26060 11039
" />
<path d="M25835 10674
L25816 10655
L25798 10617
L25798 10524
L25816 10486
L25835 10467
L25873 10449
L25910 10449
L25966 10467
L26191 10692
L26191 10449
" />
<path d="M25835 10299
L25816 10280
L25798 10242
L25798 10149
L25816 10111
L25835 10092
L25873 10074
L25910 10074
L25966 10092
L26191 10317
L26191 10074
" />
<path d="M25798 9830
L25798 9792
L25816 9755
L25835 9736
L25873 9717
L25948 9699
L26041 9699
L26116 9717
L26154 9736
L26173 9755
L26191 9792
L26191 9830
L26173 9867
L26154 9886
L26116 9905
L26041 9924
L25948 9924
L25873 9905
L25835 9886
L25816 9867
L25798 9830
" />
<path d="M30522 11433
L30335 11564
" />
<path d="M30522 11658
L30128 11658
L30128 11508
L30147 11470
L30166 11452
L30203 11433
L30260 11433
L30297 11452
L30316 11470
L30335 11508
L30335 11658
" />
<path d="M30128 11077
L30128 11264
L30316 11283
L30297 11264
L30278 11227
L30278 11133
L30297 11095
L30316 11077
L30353 11058
L30447 11058
L30485 11077
L30503 11095
L30522 11133
L30522 11227
L30503 11264
L30485 11283
" />
<path d="M30166 10674
L30147 10655
L30128 10617
L30128 10524
L30147 10486
L30166 10467
L30203 10449
L30241 10449
L30297 10467
L30522 10692
L30522 10449
" />
<path d="M30166 10299
L30147 10280
L30128 10242
L30128 10149
L30147 10111
L30166 10092
L30203 10074
L30241 10074
L30297 10092
L30522 10317
L30522 10074
" />
<path d="M30128 9830
L30128 9792
L30147 9755
L30166 9736
L30203 9717
L30278 9699
L30372 9699
L30447 9717
L30485 9736
L30503 9755
L30522 9792
L30522 9830
L30503 9867
L30485 9886
L30447 9905
L30372 9924
L30278 9924
L30203 9905
L30166 9886
L30147 9867
L30128 9830
" />
<path d="M29 27903
L29 344
" />
<path d="M39399 27903
L29 27903
" />
<path d="M39399 344
L39399 27903
" />
<path d="M29 344
L39399 344
" />
</g> 
</svg>
